Coordinates
version=1
nRows=11
nColumns=36
inDegrees=yes

Units are S.I. units (second, meters, Newtons, ...)
If the header above contains a line with 'inDegrees', this indicates whether rotational values are in degrees (yes) or radians (no).

endheader
time	pelvis_tilt	pelvis_list	pelvis_rotation	pelvis_tx	pelvis_ty	pelvis_tz	hip_flexion_r	hip_adduction_r	hip_rotation_r	knee_angle_r	knee_angle_r_beta	ankle_angle_r	subtalar_angle_r	mtp_angle_r	hip_flexion_l	hip_adduction_l	hip_rotation_l	knee_angle_l	knee_angle_l_beta	ankle_angle_l	subtalar_angle_l	mtp_angle_l	lumbar_extension	lumbar_bending	lumbar_rotation	arm_flex_r	arm_add_r	arm_rot_r	elbow_flex_r	pro_sup_r	arm_flex_l	arm_add_l	arm_rot_l	elbow_flex_l	pro_sup_l
      2.21666670	      3.30731389	     -3.95175669	     -4.25998215	      1.51291199	      0.94018172	     -0.03821695	     57.47270604	     -6.24351299	     -3.08507663	     37.27660956	      0.65059957	     -6.45748273	     -2.43464596	     -7.49999920	      6.95941003	      1.88257568	      2.27674080	     17.49052699	      0.30526728	      0.79512685	    -15.14804208	     -7.49999920	    -16.54608538	     -2.26908738	     -5.40145322	     36.17409306	      1.31515481	     61.63263480	    116.53192864	     96.84588883	     55.45414720	     -3.28473161	     70.59334905	    125.15346212	     91.41209853
      2.23333330	      3.45524361	     -4.25671147	     -4.25591678	      1.51750588	      0.94034667	     -0.04099036	     57.34899693	     -6.22944388	     -3.33668025	     37.37269548	      0.65227659	     -6.65788388	     -2.78557623	     -7.49999922	      6.50121071	      1.63862568	      2.25083523	     17.32545559	      0.30238624	      0.96849171	    -15.13642540	     -7.49999922	    -16.29808927	     -1.94274745	     -5.32159683	     36.08411734	      1.27895174	     62.32389107	    116.79963698	     96.98700437	     54.92675415	     -3.12482724	     70.43267927	    125.15090662	     91.46014359
      2.25000000	      3.50560023	     -4.45744571	     -4.28049013	      1.51777946	      0.93948775	     -0.04072005	     57.14328703	     -6.27188817	     -3.55890052	     37.32390542	      0.65142504	     -6.80720659	     -3.16967283	     -7.49999935	      6.05079700	      1.49305995	      2.16957991	     17.07349847	      0.29798876	      1.15279771	    -15.11285988	     -7.49999935	    -15.96116847	     -1.57624925	     -5.43186114	     36.17009193	      1.47985005	     63.22409849	    116.66798674	     97.36162704	     54.30223813	     -3.23439891	     70.02965313	    125.59728848	     91.54046576
      2.26666670	      3.46637563	     -4.68908317	     -4.33802437	      1.52143836	      0.93946831	     -0.03739584	     56.77368898	     -6.19286537	     -3.86218476	     37.01275500	      0.64599444	     -6.87423143	     -3.36232509	     -7.49999936	      5.65137186	      1.22807151	      2.07394511	     16.72894153	      0.29197511	      1.29390890	    -15.12640664	     -7.49999936	    -15.48167141	     -1.35729687	     -5.17597864	     35.69791333	      1.64274907	     63.81607111	    116.75365406	     97.41598254	     53.71357972	     -3.32244840	     70.47279595	    126.11350159	     91.57117774
      2.28333330	      3.38810196	     -4.85619222	     -4.48130783	      1.52181378	      0.93872708	     -0.03709745	     56.52022133	     -6.09318369	     -4.01156402	     36.78599835	      0.64203679	     -6.98235902	     -3.79656166	     -7.49999939	      5.39314330	      1.04619829	      1.85498799	     16.51140501	      0.28817838	      1.48501715	    -14.90412753	     -7.49999939	    -15.04031177	     -1.08089536	     -4.91187104	     35.45442984	      1.80995676	     64.31062008	    117.01484953	     96.37118317	     53.10918513	     -3.29506010	     70.80288004	    126.66720979	     90.86220732
      2.30000000	      3.17487858	     -5.09846563	     -4.55158707	      1.52664327	      0.93871188	     -0.03952789	     56.35718135	     -6.05771978	     -4.17345206	     36.76609497	      0.64168941	     -7.08672911	     -4.37437225	     -7.49999941	      5.22378578	      0.83392783	      2.06553383	     16.30157495	      0.28451616	      1.81819907	    -14.99423600	     -7.49999941	    -14.37193415	     -0.73667435	     -5.00585948	     35.29010098	      1.86790798	     64.87224105	    117.17607026	     96.04724443	     52.21726505	     -3.49958817	     70.61825517	    127.02019403	     90.14292883
      2.31666670	      3.18290584	     -5.25446042	     -4.56174504	      1.52696165	      0.93818010	     -0.03925374	     56.01977283	     -6.13680956	     -4.24600209	     36.79154715	      0.64213363	     -7.18968893	     -4.81548131	     -7.49999943	      4.96045298	      0.71681480	      2.18096301	     16.09423562	      0.28089740	      2.34673217	    -14.86468939	     -7.49999943	    -14.10835338	     -0.52746507	     -5.05437572	     35.28541161	      1.94883140	     65.63144093	    117.39720492	     95.48541081	     51.85895217	     -3.67910330	     70.77293761	    127.51779498	     89.74408817
      2.33333330	      3.09962850	     -5.40726492	     -4.56965591	      1.53065905	      0.93847690	     -0.03599831	     55.68986004	     -6.11316719	     -4.34317687	     36.69300876	      0.64041382	     -7.04839748	     -5.07076011	     -7.49999943	      4.65234940	      0.56286341	      2.40467249	     15.65980530	      0.27331516	      2.74424639	    -14.89010745	     -7.49999943	    -13.62004646	     -0.43059899	     -4.99557178	     34.95163119	      2.30900864	     65.99002219	    117.63145465	     95.57053781	     51.38794796	     -3.81785787	     70.82575206	    127.66877019	     89.79058752
      2.35000000	      2.87327777	     -5.61126263	     -4.59124174	      1.53104650	      0.93772148	     -0.03571055	     55.35456642	     -6.00039963	     -4.47511065	     36.29311063	      0.63343428	     -7.09574054	     -5.25121856	     -7.49999947	      4.52036884	      0.31514281	      2.49381509	     15.27265256	      0.26655807	      3.06059016	    -14.62129375	     -7.49999947	    -12.97952295	     -0.14031923	     -4.98958445	     35.07057896	      2.63763991	     66.36671577	    117.74120815	     94.34353154	     50.79486910	     -3.90788421	     70.50769499	    128.34302665	     88.60822299
      2.36666670	      2.87353215	     -5.74918795	     -4.48382104	      1.53094089	      0.93775315	     -0.03614887	     54.93251470	     -6.02103336	     -4.60087990	     36.01573763	      0.62859320	     -7.12170631	     -5.32459614	     -7.49999952	      4.36580607	      0.18856187	      2.73255725	     15.12669671	      0.26401066	      3.48740442	    -14.55383192	     -7.49999952	    -12.71749257	      0.02093726	     -5.18809724	     35.70657315	      2.97108656	     66.91056384	    117.47904311	     93.31322499	     50.53140526	     -3.92768221	     70.31332256	    128.64942276	     87.48461401
      2.38333330	      2.74150067	     -5.85363361	     -4.41522783	      1.53139034	      0.93940000	     -0.03563780	     54.61390167	     -6.01690924	     -4.67097342	     35.62113639	      0.62170611	     -7.07654364	     -5.35223027	     -7.49999953	      4.39658629	      0.08621211	      2.88026403	     15.08586839	      0.26329807	      3.65453678	    -14.55128811	     -7.49999953	    -12.40477359	      0.11642652	     -5.25220324	     35.85160629	      2.97805432	     66.82846225	    117.26082535	     92.87029131	     50.13476383	     -4.26461082	     70.23515068	    128.70191835	     86.85131991
